<svg id="Layer_1" data-name="Layer 1" xmlns="http://www.w3.org/2000/svg" viewBox="0 0 250 250"><defs><style>.cls-1,.cls-10,.cls-11,.cls-14,.cls-6,.cls-8{fill:none;}.cls-2{fill:gray;stroke:gray;}.cls-10,.cls-11,.cls-14,.cls-2,.cls-3,.cls-6,.cls-8{stroke-miterlimit:10;}.cls-2,.cls-3{stroke-width:7px;}.cls-3{fill:#f2f2f2;stroke:#b3b3b3;}.cls-4{fill:#3e90f7;}.cls-5{fill:#754c24;}.cls-11,.cls-14,.cls-6{stroke:#603813;}.cls-6,.cls-8{stroke-width:6px;}.cls-7{fill:#8c6239;}.cls-8{stroke:#754c24;}.cls-9{fill:#c69c6d;}.cls-10{stroke:#b28863;}.cls-10,.cls-11,.cls-14{stroke-width:2px;}.cls-12{fill:#603813;}.cls-13{fill:#42210b;}.cls-14{stroke-dasharray:12 2 4 2 8 5;}</style></defs><rect class="cls-1" width="250" height="250"/><rect class="cls-2" x="82.12" y="45.58" width="87.53" height="87.53" rx="15.03"/><rect class="cls-3" x="82" y="42.31" width="87.53" height="75.17" rx="15.03"/><path class="cls-4" d="M97,87.27A102.24,102.24,0,0,0,115.25,105c2.46,1.89,6.9.48,8.21-2.16A128.16,128.16,0,0,1,154,63.33c5.82-5.1-2.7-13.56-8.49-8.49A137,137,0,0,0,113.1,96.78l8.2-2.15a91.74,91.74,0,0,1-15.79-15.84c-4.79-6.06-13.23,2.49-8.48,8.48Z"/><rect class="cls-5" x="174.06" y="106.03" width="54.91" height="18.42" rx="1" transform="matrix(0.97, -0.26, 0.26, 0.97, -22.96, 56.08)"/><rect class="cls-6" x="174.06" y="106.03" width="54.91" height="18.42" rx="1" transform="matrix(0.97, -0.26, 0.26, 0.97, -22.96, 56.08)"/><rect class="cls-5" x="39.91" y="87.36" width="18.42" height="54.91" rx="1" transform="matrix(0.26, -0.97, 0.97, 0.26, -74.49, 132.54)"/><rect class="cls-6" x="39.91" y="87.36" width="18.42" height="54.91" rx="1" transform="matrix(0.26, -0.97, 0.97, 0.26, -74.49, 132.54)"/><rect class="cls-7" x="49" y="113" width="153" height="93" rx="1"/><rect class="cls-8" x="49" y="113" width="153" height="93" rx="1"/><rect class="cls-9" x="115" y="111" width="20" height="29" rx="1"/><rect class="cls-10" x="115" y="111" width="20" height="29" rx="1"/><rect class="cls-9" x="115" y="188" width="20" height="20" rx="1"/><rect class="cls-10" x="115" y="188" width="20" height="20" rx="1"/><path class="cls-5" d="M182,150.67c.55,0,.74-.37.42-.81l-12.24-17.05a.67.67,0,0,0-1.16,0l-12.24,17.05c-.32.44-.13.81.42.81H163a1,1,0,0,1,1,1V170a1,1,0,0,0,1,1h9a1,1,0,0,0,1-1V151.67a1,1,0,0,1,1-1Z"/><path class="cls-11" d="M182,150.67c.55,0,.74-.37.42-.81l-12.24-17.05a.67.67,0,0,0-1.16,0l-12.24,17.05c-.32.44-.13.81.42.81H163a1,1,0,0,1,1,1V170a1,1,0,0,0,1,1h9a1,1,0,0,0,1-1V151.67a1,1,0,0,1,1-1Z"/><rect class="cls-5" x="62.51" y="126.34" width="25.66" height="25.66" rx="5.95"/><path class="cls-12" d="M82.22,150.87c-4.58,0-9.17.14-13.75,0a4.89,4.89,0,0,1-4.78-4.09,15.87,15.87,0,0,1,0-2.39v-9.31c0-2.86-.16-6.06,3.12-7.3a8,8,0,0,1,3-.31H74c2.68,0,5.36,0,8,0a5,5,0,0,1,4.26,2.2A6.05,6.05,0,0,1,87,133.2v10.06c0,.92,0,1.85,0,2.77a4.89,4.89,0,0,1-4.83,4.84c-1.45,0-1.45,2.3,0,2.25a7.19,7.19,0,0,0,6.16-3.6,8.36,8.36,0,0,0,.92-4.25v-10c0-3.23.09-6.41-2.79-8.61-2.52-1.92-5.87-1.46-8.85-1.46s-6,0-9,0a7.21,7.21,0,0,0-7.25,7.28c0,3.08,0,6.15,0,9.23,0,2.91-.43,6.14,1.46,8.61,2.48,3.24,6.34,2.78,9.94,2.78h9.43A1.13,1.13,0,0,0,82.22,150.87Z"/><path class="cls-13" d="M66.87,141a37.77,37.77,0,0,0,4,4.82A3.34,3.34,0,0,0,72.52,147a2.23,2.23,0,0,0,2.44-1.2c1.5-2.56,2.94-5.15,4.58-7.62a32.61,32.61,0,0,1,3.88-5c1.35-1.38-.77-3.5-2.12-2.12a47.65,47.65,0,0,0-6.41,8.85q-1.06,1.77-2.07,3.57a3.46,3.46,0,0,0-.45.82c-.1.51,1.07-.4,1.13-.05,0-.07-.22-.23-.27-.27a33.91,33.91,0,0,1-3.77-4.44A1.54,1.54,0,0,0,67.4,139a1.51,1.51,0,0,0-.53,2.05Z"/><rect class="cls-5" x="61" y="181.58" width="29.5" height="12.42" rx="1"/><rect class="cls-14" x="61" y="181.58" width="29.5" height="12.42" rx="1"/></svg>